<mxfile host="app.diagrams.net" modified="2020-09-15T15:40:49.972Z" agent="5.0 (Macintosh; Intel Mac OS X 10_15_6) AppleWebKit/537.36 (KHTML, like Gecko) Chrome/85.0.4183.83 Safari/537.36" etag="h4B7O8DxdiV34jhxdOAH" version="13.6.10" type="github">
  <diagram id="tDmwTik7oiPJnceaTpRr" name="Page-1">
    <mxGraphModel dx="959" dy="550" grid="1" gridSize="10" guides="1" tooltips="1" connect="1" arrows="1" fold="1" page="1" pageScale="1" pageWidth="827" pageHeight="1169" math="0" shadow="0">
      <root>
        <mxCell id="0" />
        <mxCell id="1" parent="0" />
        <mxCell id="ZzEcKW9x0ddp_aoZOC0a-19" style="edgeStyle=orthogonalEdgeStyle;rounded=0;orthogonalLoop=1;jettySize=auto;html=1;exitX=0.5;exitY=1;exitDx=0;exitDy=0;entryX=0.5;entryY=0;entryDx=0;entryDy=0;" edge="1" parent="1" source="ZzEcKW9x0ddp_aoZOC0a-2" target="ZzEcKW9x0ddp_aoZOC0a-15">
          <mxGeometry relative="1" as="geometry" />
        </mxCell>
        <mxCell id="ZzEcKW9x0ddp_aoZOC0a-2" value="for(let i=0;i&amp;lt;number;i++)" style="shape=trapezoid;perimeter=trapezoidPerimeter;whiteSpace=wrap;html=1;fixedSize=1;" vertex="1" parent="1">
          <mxGeometry x="35" y="20" width="170" height="40" as="geometry" />
        </mxCell>
        <mxCell id="ZzEcKW9x0ddp_aoZOC0a-21" style="edgeStyle=orthogonalEdgeStyle;rounded=0;orthogonalLoop=1;jettySize=auto;html=1;entryX=0.5;entryY=0;entryDx=0;entryDy=0;" edge="1" parent="1" source="ZzEcKW9x0ddp_aoZOC0a-6" target="ZzEcKW9x0ddp_aoZOC0a-7">
          <mxGeometry relative="1" as="geometry" />
        </mxCell>
        <mxCell id="ZzEcKW9x0ddp_aoZOC0a-33" style="edgeStyle=orthogonalEdgeStyle;rounded=0;orthogonalLoop=1;jettySize=auto;html=1;entryX=0;entryY=0.5;entryDx=0;entryDy=0;" edge="1" parent="1" source="ZzEcKW9x0ddp_aoZOC0a-6" target="ZzEcKW9x0ddp_aoZOC0a-8">
          <mxGeometry relative="1" as="geometry" />
        </mxCell>
        <mxCell id="ZzEcKW9x0ddp_aoZOC0a-6" value="if (sum&amp;gt;=number*100*0.8)" style="rhombus;whiteSpace=wrap;html=1;" vertex="1" parent="1">
          <mxGeometry x="22.5" y="160" width="195" height="70" as="geometry" />
        </mxCell>
        <mxCell id="ZzEcKW9x0ddp_aoZOC0a-22" style="edgeStyle=orthogonalEdgeStyle;rounded=0;orthogonalLoop=1;jettySize=auto;html=1;entryX=0.084;entryY=0;entryDx=0;entryDy=0;entryPerimeter=0;" edge="1" parent="1" source="ZzEcKW9x0ddp_aoZOC0a-7" target="ZzEcKW9x0ddp_aoZOC0a-16">
          <mxGeometry relative="1" as="geometry" />
        </mxCell>
        <mxCell id="ZzEcKW9x0ddp_aoZOC0a-7" value="return &quot;A&quot;" style="rounded=0;whiteSpace=wrap;html=1;" vertex="1" parent="1">
          <mxGeometry x="35" y="280" width="170" height="60" as="geometry" />
        </mxCell>
        <mxCell id="ZzEcKW9x0ddp_aoZOC0a-24" style="edgeStyle=orthogonalEdgeStyle;rounded=0;orthogonalLoop=1;jettySize=auto;html=1;entryX=0.5;entryY=0;entryDx=0;entryDy=0;" edge="1" parent="1" source="ZzEcKW9x0ddp_aoZOC0a-8" target="ZzEcKW9x0ddp_aoZOC0a-11">
          <mxGeometry relative="1" as="geometry" />
        </mxCell>
        <mxCell id="ZzEcKW9x0ddp_aoZOC0a-34" style="edgeStyle=orthogonalEdgeStyle;rounded=0;orthogonalLoop=1;jettySize=auto;html=1;entryX=0;entryY=0.5;entryDx=0;entryDy=0;" edge="1" parent="1" source="ZzEcKW9x0ddp_aoZOC0a-8" target="ZzEcKW9x0ddp_aoZOC0a-9">
          <mxGeometry relative="1" as="geometry" />
        </mxCell>
        <mxCell id="ZzEcKW9x0ddp_aoZOC0a-8" value="else if (sum&amp;gt;=number*100*0.6)" style="rhombus;whiteSpace=wrap;html=1;" vertex="1" parent="1">
          <mxGeometry x="250" y="155" width="190" height="80" as="geometry" />
        </mxCell>
        <mxCell id="ZzEcKW9x0ddp_aoZOC0a-27" style="edgeStyle=orthogonalEdgeStyle;rounded=0;orthogonalLoop=1;jettySize=auto;html=1;entryX=0.5;entryY=0;entryDx=0;entryDy=0;" edge="1" parent="1" source="ZzEcKW9x0ddp_aoZOC0a-9" target="ZzEcKW9x0ddp_aoZOC0a-12">
          <mxGeometry relative="1" as="geometry" />
        </mxCell>
        <mxCell id="ZzEcKW9x0ddp_aoZOC0a-35" style="edgeStyle=orthogonalEdgeStyle;rounded=0;orthogonalLoop=1;jettySize=auto;html=1;entryX=0;entryY=0.5;entryDx=0;entryDy=0;" edge="1" parent="1" source="ZzEcKW9x0ddp_aoZOC0a-9" target="ZzEcKW9x0ddp_aoZOC0a-10">
          <mxGeometry relative="1" as="geometry" />
        </mxCell>
        <mxCell id="ZzEcKW9x0ddp_aoZOC0a-9" value="else if (sum&amp;gt;=number*100*0.4)" style="rhombus;whiteSpace=wrap;html=1;" vertex="1" parent="1">
          <mxGeometry x="480" y="155" width="190" height="80" as="geometry" />
        </mxCell>
        <mxCell id="ZzEcKW9x0ddp_aoZOC0a-32" style="edgeStyle=orthogonalEdgeStyle;rounded=0;orthogonalLoop=1;jettySize=auto;html=1;entryX=0.5;entryY=0;entryDx=0;entryDy=0;" edge="1" parent="1" source="ZzEcKW9x0ddp_aoZOC0a-10" target="ZzEcKW9x0ddp_aoZOC0a-13">
          <mxGeometry relative="1" as="geometry" />
        </mxCell>
        <mxCell id="ZzEcKW9x0ddp_aoZOC0a-10" value="else" style="rhombus;whiteSpace=wrap;html=1;" vertex="1" parent="1">
          <mxGeometry x="700" y="155" width="200" height="80" as="geometry" />
        </mxCell>
        <mxCell id="ZzEcKW9x0ddp_aoZOC0a-26" style="edgeStyle=orthogonalEdgeStyle;rounded=0;orthogonalLoop=1;jettySize=auto;html=1;entryX=0.355;entryY=0;entryDx=0;entryDy=0;entryPerimeter=0;" edge="1" parent="1" source="ZzEcKW9x0ddp_aoZOC0a-11" target="ZzEcKW9x0ddp_aoZOC0a-16">
          <mxGeometry relative="1" as="geometry" />
        </mxCell>
        <mxCell id="ZzEcKW9x0ddp_aoZOC0a-11" value="return &quot;B&quot;" style="rounded=0;whiteSpace=wrap;html=1;" vertex="1" parent="1">
          <mxGeometry x="260" y="280" width="170" height="60" as="geometry" />
        </mxCell>
        <mxCell id="ZzEcKW9x0ddp_aoZOC0a-29" style="edgeStyle=orthogonalEdgeStyle;rounded=0;orthogonalLoop=1;jettySize=auto;html=1;entryX=0.633;entryY=-0.033;entryDx=0;entryDy=0;entryPerimeter=0;" edge="1" parent="1" source="ZzEcKW9x0ddp_aoZOC0a-12" target="ZzEcKW9x0ddp_aoZOC0a-16">
          <mxGeometry relative="1" as="geometry" />
        </mxCell>
        <mxCell id="ZzEcKW9x0ddp_aoZOC0a-12" value="return &quot;C&quot;" style="rounded=0;whiteSpace=wrap;html=1;" vertex="1" parent="1">
          <mxGeometry x="490" y="280" width="170" height="60" as="geometry" />
        </mxCell>
        <mxCell id="ZzEcKW9x0ddp_aoZOC0a-31" style="edgeStyle=orthogonalEdgeStyle;rounded=0;orthogonalLoop=1;jettySize=auto;html=1;entryX=0.902;entryY=-0.083;entryDx=0;entryDy=0;entryPerimeter=0;" edge="1" parent="1" source="ZzEcKW9x0ddp_aoZOC0a-13" target="ZzEcKW9x0ddp_aoZOC0a-16">
          <mxGeometry relative="1" as="geometry" />
        </mxCell>
        <mxCell id="ZzEcKW9x0ddp_aoZOC0a-13" value="return &quot;D&quot;" style="rounded=0;whiteSpace=wrap;html=1;" vertex="1" parent="1">
          <mxGeometry x="715" y="280" width="170" height="60" as="geometry" />
        </mxCell>
        <mxCell id="ZzEcKW9x0ddp_aoZOC0a-20" style="edgeStyle=orthogonalEdgeStyle;rounded=0;orthogonalLoop=1;jettySize=auto;html=1;entryX=0.5;entryY=0;entryDx=0;entryDy=0;" edge="1" parent="1" source="ZzEcKW9x0ddp_aoZOC0a-15" target="ZzEcKW9x0ddp_aoZOC0a-6">
          <mxGeometry relative="1" as="geometry" />
        </mxCell>
        <mxCell id="ZzEcKW9x0ddp_aoZOC0a-15" value="sum += points[i]" style="rounded=0;whiteSpace=wrap;html=1;" vertex="1" parent="1">
          <mxGeometry x="35" y="80" width="170" height="40" as="geometry" />
        </mxCell>
        <mxCell id="ZzEcKW9x0ddp_aoZOC0a-16" value="&lt;font style=&quot;font-size: 22px&quot;&gt;終了&lt;/font&gt;" style="rounded=1;whiteSpace=wrap;html=1;arcSize=27;" vertex="1" parent="1">
          <mxGeometry x="50" y="420" width="830" height="60" as="geometry" />
        </mxCell>
        <mxCell id="ZzEcKW9x0ddp_aoZOC0a-36" value="YES" style="text;html=1;align=center;verticalAlign=middle;resizable=0;points=[];autosize=1;" vertex="1" parent="1">
          <mxGeometry x="120" y="240" width="40" height="20" as="geometry" />
        </mxCell>
        <mxCell id="ZzEcKW9x0ddp_aoZOC0a-37" value="NO" style="text;html=1;align=center;verticalAlign=middle;resizable=0;points=[];autosize=1;" vertex="1" parent="1">
          <mxGeometry x="210" y="160" width="30" height="20" as="geometry" />
        </mxCell>
        <mxCell id="ZzEcKW9x0ddp_aoZOC0a-38" value="NO" style="text;html=1;align=center;verticalAlign=middle;resizable=0;points=[];autosize=1;" vertex="1" parent="1">
          <mxGeometry x="440" y="155" width="30" height="20" as="geometry" />
        </mxCell>
        <mxCell id="ZzEcKW9x0ddp_aoZOC0a-39" value="NO" style="text;html=1;align=center;verticalAlign=middle;resizable=0;points=[];autosize=1;" vertex="1" parent="1">
          <mxGeometry x="660" y="155" width="30" height="20" as="geometry" />
        </mxCell>
        <mxCell id="ZzEcKW9x0ddp_aoZOC0a-40" value="YES" style="text;html=1;align=center;verticalAlign=middle;resizable=0;points=[];autosize=1;" vertex="1" parent="1">
          <mxGeometry x="810" y="240" width="40" height="20" as="geometry" />
        </mxCell>
        <mxCell id="ZzEcKW9x0ddp_aoZOC0a-41" value="YES" style="text;html=1;align=center;verticalAlign=middle;resizable=0;points=[];autosize=1;" vertex="1" parent="1">
          <mxGeometry x="580" y="240" width="40" height="20" as="geometry" />
        </mxCell>
        <mxCell id="ZzEcKW9x0ddp_aoZOC0a-42" value="YES" style="text;html=1;align=center;verticalAlign=middle;resizable=0;points=[];autosize=1;" vertex="1" parent="1">
          <mxGeometry x="350" y="240" width="40" height="20" as="geometry" />
        </mxCell>
      </root>
    </mxGraphModel>
  </diagram>
</mxfile>
